<mxfile host="app.diagrams.net" agent="Mozilla/5.0 (Windows NT 10.0; Win64; x64) AppleWebKit/537.36 (KHTML, like Gecko) Chrome/127.0.0.0 Safari/537.36" version="24.7.4">
  <diagram id="R2lEEEUBdFMjLlhIrx00" name="Page-1">
    <mxGraphModel dx="1302" dy="782" grid="1" gridSize="10" guides="1" tooltips="1" connect="1" arrows="1" fold="1" page="1" pageScale="1" pageWidth="850" pageHeight="1100" math="0" shadow="0" extFonts="Permanent Marker^https://fonts.googleapis.com/css?family=Permanent+Marker">
      <root>
        <mxCell id="0" />
        <mxCell id="1" parent="0" />
        <mxCell id="NfwQZNk_MdAVpglzwqrR-5" value="" style="edgeStyle=orthogonalEdgeStyle;rounded=0;orthogonalLoop=1;jettySize=auto;exitX=1;exitY=0.5;exitDx=0;exitDy=0;entryX=0;entryY=0.5;entryDx=0;entryDy=0;fontStyle=1;html=1;fontColor=default;align=center;" edge="1" parent="1" source="NfwQZNk_MdAVpglzwqrR-1" target="NfwQZNk_MdAVpglzwqrR-4">
          <mxGeometry relative="1" as="geometry" />
        </mxCell>
        <mxCell id="NfwQZNk_MdAVpglzwqrR-6" value="1" style="edgeLabel;align=center;verticalAlign=middle;resizable=0;points=[];fontStyle=1;html=1;fontColor=default;" vertex="1" connectable="0" parent="NfwQZNk_MdAVpglzwqrR-5">
          <mxGeometry x="0.0375" relative="1" as="geometry">
            <mxPoint as="offset" />
          </mxGeometry>
        </mxCell>
        <mxCell id="NfwQZNk_MdAVpglzwqrR-10" value="" style="edgeStyle=orthogonalEdgeStyle;rounded=0;orthogonalLoop=1;jettySize=auto;exitX=0.5;exitY=1;exitDx=0;exitDy=0;entryX=0.5;entryY=0;entryDx=0;entryDy=0;fontStyle=1;html=1;fontColor=default;align=center;" edge="1" parent="1" source="NfwQZNk_MdAVpglzwqrR-1" target="NfwQZNk_MdAVpglzwqrR-9">
          <mxGeometry relative="1" as="geometry" />
        </mxCell>
        <mxCell id="NfwQZNk_MdAVpglzwqrR-11" value="1" style="edgeLabel;align=center;verticalAlign=middle;resizable=0;points=[];fontStyle=1;html=1;fontColor=default;" vertex="1" connectable="0" parent="NfwQZNk_MdAVpglzwqrR-10">
          <mxGeometry x="0.0133" y="1" relative="1" as="geometry">
            <mxPoint as="offset" />
          </mxGeometry>
        </mxCell>
        <mxCell id="NfwQZNk_MdAVpglzwqrR-1" value="隐患排查任务信息" style="rounded=0;fontColor=default;fontStyle=1;whiteSpace=wrap;html=1;align=center;" vertex="1" parent="1">
          <mxGeometry x="160" y="90" width="120" height="60" as="geometry" />
        </mxCell>
        <mxCell id="NfwQZNk_MdAVpglzwqrR-7" value="" style="edgeStyle=orthogonalEdgeStyle;rounded=0;orthogonalLoop=1;jettySize=auto;exitX=0;exitY=0.5;exitDx=0;exitDy=0;entryX=1;entryY=0.5;entryDx=0;entryDy=0;fontStyle=1;html=1;fontColor=default;align=center;" edge="1" parent="1" source="NfwQZNk_MdAVpglzwqrR-2" target="NfwQZNk_MdAVpglzwqrR-4">
          <mxGeometry relative="1" as="geometry" />
        </mxCell>
        <mxCell id="NfwQZNk_MdAVpglzwqrR-8" value="n" style="edgeLabel;align=center;verticalAlign=middle;resizable=0;points=[];fontStyle=1;html=1;fontColor=default;" vertex="1" connectable="0" parent="NfwQZNk_MdAVpglzwqrR-7">
          <mxGeometry x="0.0048" y="-3" relative="1" as="geometry">
            <mxPoint as="offset" />
          </mxGeometry>
        </mxCell>
        <mxCell id="NfwQZNk_MdAVpglzwqrR-2" value="隐患排查任务隐患维护" style="rounded=0;fontColor=default;fontStyle=1;whiteSpace=wrap;html=1;align=center;" vertex="1" parent="1">
          <mxGeometry x="510" y="90" width="120" height="60" as="geometry" />
        </mxCell>
        <mxCell id="NfwQZNk_MdAVpglzwqrR-12" value="" style="edgeStyle=orthogonalEdgeStyle;rounded=0;orthogonalLoop=1;jettySize=auto;exitX=0.5;exitY=0;exitDx=0;exitDy=0;entryX=0.5;entryY=1;entryDx=0;entryDy=0;fontStyle=1;html=1;fontColor=default;align=center;" edge="1" parent="1" source="NfwQZNk_MdAVpglzwqrR-3" target="NfwQZNk_MdAVpglzwqrR-9">
          <mxGeometry relative="1" as="geometry" />
        </mxCell>
        <mxCell id="NfwQZNk_MdAVpglzwqrR-13" value="n" style="edgeLabel;align=center;verticalAlign=middle;resizable=0;points=[];fontStyle=1;html=1;fontColor=default;" vertex="1" connectable="0" parent="NfwQZNk_MdAVpglzwqrR-12">
          <mxGeometry x="-0.0467" y="2" relative="1" as="geometry">
            <mxPoint as="offset" />
          </mxGeometry>
        </mxCell>
        <mxCell id="NfwQZNk_MdAVpglzwqrR-17" value="" style="edgeStyle=orthogonalEdgeStyle;rounded=0;orthogonalLoop=1;jettySize=auto;exitX=1;exitY=0.5;exitDx=0;exitDy=0;entryX=0;entryY=0.5;entryDx=0;entryDy=0;fontStyle=1;html=1;fontColor=default;align=center;" edge="1" parent="1" source="NfwQZNk_MdAVpglzwqrR-3" target="NfwQZNk_MdAVpglzwqrR-14">
          <mxGeometry relative="1" as="geometry" />
        </mxCell>
        <mxCell id="NfwQZNk_MdAVpglzwqrR-18" value="1" style="edgeLabel;align=center;verticalAlign=middle;resizable=0;points=[];fontStyle=1;html=1;fontColor=default;" vertex="1" connectable="0" parent="NfwQZNk_MdAVpglzwqrR-17">
          <mxGeometry x="-0.15" y="-2" relative="1" as="geometry">
            <mxPoint as="offset" />
          </mxGeometry>
        </mxCell>
        <mxCell id="NfwQZNk_MdAVpglzwqrR-3" value="隐患排查任务分配记录" style="rounded=0;fontStyle=1;whiteSpace=wrap;html=1;fontColor=default;align=center;" vertex="1" parent="1">
          <mxGeometry x="160" y="330" width="120" height="60" as="geometry" />
        </mxCell>
        <mxCell id="NfwQZNk_MdAVpglzwqrR-4" value="关联" style="rhombus;fontStyle=1;whiteSpace=wrap;html=1;fontColor=default;align=center;" vertex="1" parent="1">
          <mxGeometry x="360" y="80" width="80" height="80" as="geometry" />
        </mxCell>
        <mxCell id="NfwQZNk_MdAVpglzwqrR-9" value="关联" style="rhombus;fontStyle=1;whiteSpace=wrap;html=1;fontColor=default;align=center;" vertex="1" parent="1">
          <mxGeometry x="180" y="200" width="80" height="80" as="geometry" />
        </mxCell>
        <mxCell id="NfwQZNk_MdAVpglzwqrR-14" value="关联" style="rhombus;fontStyle=1;whiteSpace=wrap;html=1;fontColor=default;align=center;" vertex="1" parent="1">
          <mxGeometry x="360" y="320" width="80" height="80" as="geometry" />
        </mxCell>
        <mxCell id="NfwQZNk_MdAVpglzwqrR-19" value="" style="edgeStyle=orthogonalEdgeStyle;rounded=0;orthogonalLoop=1;jettySize=auto;exitX=0;exitY=0.5;exitDx=0;exitDy=0;fontStyle=1;html=1;fontColor=default;align=center;" edge="1" parent="1" source="NfwQZNk_MdAVpglzwqrR-15" target="NfwQZNk_MdAVpglzwqrR-14">
          <mxGeometry relative="1" as="geometry" />
        </mxCell>
        <mxCell id="NfwQZNk_MdAVpglzwqrR-20" value="n" style="edgeLabel;align=center;verticalAlign=middle;resizable=0;points=[];fontStyle=1;html=1;fontColor=default;" vertex="1" connectable="0" parent="NfwQZNk_MdAVpglzwqrR-19">
          <mxGeometry x="-0.1143" y="2" relative="1" as="geometry">
            <mxPoint as="offset" />
          </mxGeometry>
        </mxCell>
        <mxCell id="NfwQZNk_MdAVpglzwqrR-15" value="隐患排查任务分配人员" style="rounded=0;fontStyle=1;whiteSpace=wrap;html=1;fontColor=default;align=center;" vertex="1" parent="1">
          <mxGeometry x="510" y="330" width="120" height="60" as="geometry" />
        </mxCell>
        <mxCell id="NfwQZNk_MdAVpglzwqrR-21" value="" style="edgeStyle=orthogonalEdgeStyle;rounded=0;orthogonalLoop=1;jettySize=auto;exitX=0;exitY=0.5;exitDx=0;exitDy=0;fontStyle=1;html=1;fontColor=default;align=center;" edge="1" parent="1" source="NfwQZNk_MdAVpglzwqrR-16" target="NfwQZNk_MdAVpglzwqrR-14">
          <mxGeometry relative="1" as="geometry" />
        </mxCell>
        <mxCell id="NfwQZNk_MdAVpglzwqrR-22" value="n" style="edgeLabel;align=center;verticalAlign=middle;resizable=0;points=[];fontStyle=1;html=1;fontColor=default;" vertex="1" connectable="0" parent="NfwQZNk_MdAVpglzwqrR-21">
          <mxGeometry x="-0.4148" y="-1" relative="1" as="geometry">
            <mxPoint as="offset" />
          </mxGeometry>
        </mxCell>
        <mxCell id="NfwQZNk_MdAVpglzwqrR-16" value="隐患排查任务分配巡检点" style="rounded=0;fontStyle=1;whiteSpace=wrap;html=1;fontColor=default;align=center;" vertex="1" parent="1">
          <mxGeometry x="510" y="440" width="120" height="60" as="geometry" />
        </mxCell>
      </root>
    </mxGraphModel>
  </diagram>
</mxfile>
